<?xml version="1.0" standalone="no"?>
<!DOCTYPE svg PUBLIC "-//W3C//DTD SVG 20010904//EN"
 "http://www.w3.org/TR/2001/REC-SVG-20010904/DTD/svg10.dtd">
<svg version="1.0" xmlns="http://www.w3.org/2000/svg"
 width="1000.000000pt" height="1000.000000pt" viewBox="0 0 1000.000000 1000.000000"
 preserveAspectRatio="xMidYMid meet">
<metadata>
Created by potrace 1.11, written by Peter Selinger 2001-2013
</metadata>
<g transform="translate(0.000000,1000.000000) scale(0.100000,-0.100000)"
fill="#000000" stroke="none">
<path d="M0 5000 l0 -5000 5000 0 5000 0 0 5000 0 5000 -5000 0 -5000 0 0
-5000z m2322 1823 l3 -338 28 47 c16 26 45 62 65 79 133 117 363 99 434 -34
22 -41 23 -53 28 -382 5 -364 6 -371 57 -394 13 -6 37 -11 53 -11 23 0 30 -5
30 -20 0 -19 -7 -20 -211 -20 -194 0 -210 1 -207 17 2 12 16 20 41 24 74 12
72 0 75 377 3 366 -1 398 -50 435 -33 25 -102 32 -158 17 -61 -16 -130 -88
-160 -166 -20 -52 -23 -83 -28 -270 -6 -260 1 -338 33 -370 15 -15 36 -24 55
-24 23 0 30 -4 30 -20 0 -19 -7 -20 -205 -20 -198 0 -205 1 -205 20 0 16 7 20
36 20 26 0 43 8 65 29 l29 30 -2 596 -3 597 -33 29 c-20 18 -43 29 -62 29 -23
0 -30 4 -30 20 0 19 7 20 93 21 50 0 110 4 132 8 22 5 46 9 52 10 10 1 13 -76
15 -336z m1937 283 c85 -44 79 -169 -9 -206 -42 -17 -91 -5 -126 31 -86 89 24
232 135 175z m-2668 -105 c32 -12 85 -40 118 -61 34 -22 68 -40 76 -40 18 0
31 24 40 78 5 32 11 42 26 42 22 0 24 -33 12 -277 -5 -125 -8 -143 -23 -143
-13 0 -21 19 -35 85 -32 153 -111 244 -248 286 -99 31 -224 24 -290 -14 -99
-58 -172 -167 -213 -317 -26 -93 -27 -417 -1 -509 45 -165 139 -288 252 -330
51 -20 74 -22 155 -19 206 10 318 112 351 321 9 61 15 77 29 77 15 0 18 -17
23 -142 4 -79 7 -176 7 -215 0 -66 -2 -73 -19 -73 -16 0 -21 9 -26 45 -4 24
-13 52 -21 62 -13 17 -16 17 -61 -10 -144 -83 -220 -107 -337 -107 -213 1
-397 112 -486 294 -52 104 -70 192 -70 342 0 341 170 583 455 644 68 15 223 4
286 -19z m2709 -711 c0 -490 -1 -482 92 -498 29 -5 44 -13 46 -25 3 -16 -14
-17 -218 -17 -204 0 -221 1 -218 17 2 12 17 20 48 25 51 9 76 33 85 81 4 18 5
181 3 364 -3 318 -4 333 -24 360 -14 18 -36 32 -65 39 -27 7 -45 17 -47 27 -3
15 8 17 90 18 51 0 111 4 133 8 83 18 75 61 75 -399z m-655 376 c53 -23 93
-61 119 -116 19 -42 21 -66 26 -383 4 -285 7 -339 20 -347 22 -14 51 -12 84 5
31 16 55 7 41 -15 -14 -22 -110 -60 -153 -60 -86 0 -152 54 -152 124 0 28 0
28 -45 -22 -27 -30 -64 -58 -96 -71 -62 -27 -169 -37 -226 -22 -153 42 -194
249 -69 359 47 41 87 61 216 107 152 54 197 80 211 123 14 43 6 190 -13 229
-24 50 -72 73 -155 73 -78 0 -128 -15 -153 -45 -13 -16 -13 -19 -1 -23 37 -12
61 -51 61 -97 0 -70 -48 -105 -125 -91 -40 8 -63 37 -72 88 -12 79 69 154 209
193 68 19 218 14 273 -9z m1185 -83 l1 -108 21 40 c69 135 232 204 380 161 74
-21 131 -81 147 -155 7 -32 11 -168 11 -347 0 -361 1 -367 92 -382 29 -5 44
-13 46 -25 3 -16 -13 -17 -207 -17 -204 0 -211 1 -211 20 0 15 7 20 29 20 17
0 42 10 58 24 l28 24 0 344 c0 389 -3 406 -69 433 -80 34 -162 12 -232 -59
-84 -87 -89 -110 -89 -439 l0 -279 28 -24 c16 -14 41 -24 58 -24 22 0 29 -5
29 -20 0 -19 -7 -20 -211 -20 -194 0 -210 1 -207 17 2 12 17 20 46 25 91 15
92 18 92 407 0 364 -4 391 -66 417 -18 8 -43 14 -54 14 -15 0 -20 7 -20 25 l0
24 138 4 c75 1 143 4 150 5 9 1 12 -25 12 -105z m1184 93 c27 -8 65 -26 87
-40 21 -14 45 -26 53 -26 18 0 36 30 36 59 0 14 6 21 20 21 19 0 20 -7 20
-155 0 -154 0 -155 -23 -155 -19 0 -24 8 -35 52 -23 98 -77 178 -139 204 -52
23 -144 18 -184 -9 -42 -28 -64 -82 -54 -134 9 -51 63 -101 205 -190 195 -121
256 -189 267 -297 7 -68 -13 -128 -60 -176 -97 -100 -304 -119 -429 -39 -52
34 -74 30 -80 -14 -2 -14 -11 -23 -27 -25 -24 -4 -24 -3 -18 65 4 37 7 119 7
181 0 103 1 112 19 112 16 0 21 -12 30 -66 14 -80 45 -163 73 -199 51 -65 191
-87 259 -42 60 40 85 123 58 194 -17 47 -68 92 -204 180 -71 47 -143 97 -159
112 -71 65 -97 192 -56 277 48 98 203 149 334 110z m676 -78 l0 -92 30 47 c80
127 253 172 395 102 135 -66 203 -222 192 -440 -12 -243 -121 -409 -301 -461
-104 -29 -230 -6 -298 54 -17 14 -18 8 -18 -124 0 -91 5 -148 13 -164 16 -32
72 -60 120 -60 30 0 37 -4 37 -20 0 -19 -7 -20 -225 -20 -218 0 -225 1 -225
20 0 15 7 20 29 20 17 0 42 10 58 24 l28 24 0 519 c0 564 -1 570 -56 598 -15
8 -39 15 -54 15 -18 0 -25 5 -25 20 0 18 8 20 138 23 75 1 143 4 150 5 9 1 12
-22 12 -90z m1355 63 c109 -48 160 -130 179 -288 l7 -53 -287 0 -286 0 4 -122
c6 -159 28 -220 107 -298 79 -78 152 -97 255 -66 61 18 107 54 142 111 27 42
64 61 64 33 0 -25 -59 -115 -96 -148 -167 -146 -455 -106 -574 80 -64 100 -90
238 -70 379 27 199 117 325 269 379 85 30 210 27 286 -7z m940 -10 c96 -47
135 -111 114 -186 -19 -67 -108 -87 -160 -36 -43 43 -36 91 19 139 27 22 27
23 7 38 -60 48 -167 59 -234 24 -106 -54 -161 -189 -161 -400 0 -181 32 -283
109 -353 68 -62 180 -74 268 -28 39 19 133 113 133 132 0 5 9 9 20 9 25 0 25
-11 -1 -62 -32 -62 -104 -133 -162 -159 -43 -20 -68 -24 -147 -24 -83 1 -103
4 -157 29 -152 69 -237 225 -237 431 0 191 71 340 202 424 110 70 270 79 387
22z m-4793 -2561 l3 -659 22 -22 c13 -13 40 -25 65 -28 30 -4 44 -11 46 -23 3
-17 -12 -18 -217 -18 -214 0 -221 1 -221 20 0 16 7 20 30 20 45 0 89 26 97 58
5 15 8 281 8 592 0 615 0 617 -56 645 -15 8 -39 15 -54 15 -19 0 -25 5 -25 23
0 21 3 22 87 19 49 -1 108 2 133 7 25 5 53 9 62 10 16 1 18 -41 20 -659z
m2027 606 c85 -44 79 -169 -9 -206 -42 -17 -91 -5 -126 31 -86 89 24 232 135
175z m-4664 -656 c121 -311 229 -579 238 -597 19 -36 53 -63 79 -63 11 0 18
-8 18 -20 0 -19 -7 -20 -211 -20 -195 0 -210 1 -207 18 2 12 16 19 52 23 51 6
76 26 76 63 -1 12 -29 98 -64 191 l-64 170 -220 3 -220 2 -44 -112 c-76 -190
-81 -242 -33 -288 16 -15 41 -24 75 -28 40 -4 50 -8 50 -23 0 -18 -11 -19
-170 -19 -163 0 -170 1 -170 20 0 11 5 20 12 20 26 0 80 55 106 108 16 31 122
297 237 590 155 397 212 532 223 530 10 -2 94 -204 237 -568z m4191 230 c124
0 135 -2 132 -17 -3 -16 -19 -18 -136 -21 l-133 -3 3 -377 c3 -417 5 -426 68
-452 75 -31 155 22 194 129 21 59 42 62 39 6 -4 -53 -52 -135 -102 -170 -39
-27 -50 -30 -124 -30 -111 0 -163 29 -204 112 l-28 58 -3 363 -3 362 -85 0
c-77 0 -84 2 -84 20 0 18 7 20 85 20 l85 0 0 145 0 145 53 1 c28 1 63 4 77 8
l25 7 3 -153 3 -153 135 0z m514 -390 c0 -490 -1 -482 92 -498 29 -5 44 -13
46 -25 3 -16 -14 -17 -218 -17 -204 0 -221 1 -218 17 2 12 17 20 48 25 51 9
76 33 85 81 4 18 5 181 3 364 -3 318 -4 333 -24 360 -14 18 -36 32 -65 39 -27
7 -45 17 -47 27 -3 15 8 17 90 18 51 0 111 4 133 8 83 18 75 61 75 -399z
m-4030 293 l1 -108 21 40 c69 135 232 204 380 161 74 -21 131 -81 147 -155 7
-32 11 -168 11 -347 0 -361 1 -367 92 -382 29 -5 44 -13 46 -25 3 -16 -13 -17
-207 -17 -204 0 -211 1 -211 20 0 15 7 20 29 20 17 0 42 10 58 24 l28 24 0
344 c0 389 -3 406 -69 433 -80 34 -162 12 -232 -59 -84 -87 -89 -110 -89 -439
l0 -279 28 -24 c16 -14 41 -24 58 -24 22 0 29 -5 29 -20 0 -19 -7 -20 -211
-20 -194 0 -210 1 -207 17 2 12 17 20 46 25 91 15 92 18 92 407 0 364 -4 391
-66 417 -18 8 -43 14 -54 14 -15 0 -20 7 -20 25 l0 24 138 4 c75 1 143 4 150
5 9 1 12 -25 12 -105z m1315 83 c53 -23 93 -61 119 -116 19 -42 21 -66 26
-383 4 -285 7 -339 20 -347 22 -14 51 -12 84 5 31 16 55 7 41 -15 -14 -22
-110 -60 -153 -60 -86 0 -152 54 -152 124 0 28 0 28 -45 -22 -27 -30 -64 -58
-96 -71 -62 -27 -169 -37 -226 -22 -153 42 -194 249 -69 359 47 41 87 61 216
107 152 54 197 80 211 123 14 43 6 190 -13 229 -24 50 -72 73 -155 73 -78 0
-128 -15 -153 -45 -13 -16 -13 -19 -1 -23 37 -12 61 -51 61 -97 0 -70 -48
-105 -125 -91 -40 8 -63 37 -72 88 -12 79 69 154 209 193 68 19 218 14 273 -9z
m3570 -15 c96 -47 135 -111 114 -186 -19 -67 -108 -87 -160 -36 -43 43 -36 91
19 139 27 22 27 23 7 38 -60 48 -167 59 -234 24 -106 -54 -161 -189 -161 -400
0 -181 32 -283 109 -353 68 -62 180 -74 268 -28 39 19 133 113 133 132 0 5 9
9 20 9 25 0 25 -11 -1 -62 -32 -62 -104 -133 -162 -159 -43 -20 -68 -24 -147
-24 -83 1 -103 4 -157 29 -152 69 -237 225 -237 431 0 191 71 340 202 424 110
70 270 79 387 22z m659 25 c27 -8 65 -26 87 -40 21 -14 45 -26 53 -26 18 0 36
30 36 59 0 14 6 21 20 21 19 0 20 -7 20 -155 0 -154 0 -155 -23 -155 -19 0
-24 8 -35 52 -23 98 -77 178 -139 204 -52 23 -144 18 -184 -9 -42 -28 -64 -82
-54 -134 9 -51 63 -101 205 -190 195 -121 256 -189 267 -297 7 -68 -13 -128
-60 -176 -97 -100 -304 -119 -429 -39 -52 34 -74 30 -80 -14 -2 -14 -11 -23
-27 -25 -24 -4 -24 -3 -18 65 4 37 7 119 7 181 0 103 1 112 19 112 16 0 21
-12 30 -66 14 -80 45 -163 73 -199 51 -65 191 -87 259 -42 60 40 85 123 58
194 -17 47 -68 92 -204 180 -71 47 -143 97 -159 112 -71 65 -97 192 -56 277
48 98 203 149 334 110z m-3014 -11 c0 -11 -11 -15 -38 -15 -21 0 -48 -7 -61
-16 -20 -14 -23 -23 -19 -59 7 -54 230 -618 239 -602 12 21 206 541 213 569
13 58 -37 108 -109 108 -16 0 -25 6 -25 15 0 13 23 15 145 15 117 0 145 -3
145 -14 0 -8 -11 -17 -25 -20 -13 -3 -36 -21 -50 -40 -14 -19 -108 -252 -214
-534 -104 -276 -202 -525 -218 -553 -32 -60 -80 -95 -140 -105 -98 -15 -163
26 -163 103 0 60 32 93 91 93 56 0 89 -29 89 -80 0 -19 -7 -46 -16 -58 -14
-20 -14 -22 2 -22 30 0 79 38 102 78 12 21 37 81 57 132 l36 94 -168 410
c-141 346 -173 417 -204 449 -20 20 -46 37 -58 37 -12 0 -21 6 -21 15 0 13 29
15 205 15 176 0 205 -2 205 -15z"/>
<path d="M3595 6266 c-16 -12 -69 -40 -117 -61 -103 -45 -154 -84 -179 -139
-40 -87 -13 -197 55 -230 76 -36 164 -10 234 69 l42 48 0 168 c0 93 -1 169 -2
169 -2 -1 -16 -11 -33 -24z"/>
<path d="M6832 6614 c-57 -28 -90 -65 -121 -134 -19 -42 -21 -65 -21 -322 l0
-277 30 -35 c42 -47 87 -66 159 -66 158 0 236 116 256 380 7 100 -7 254 -31
327 -44 136 -153 187 -272 127z"/>
<path d="M7800 6631 c-66 -35 -110 -111 -135 -238 l-7 -33 198 0 197 0 -5 68
c-7 89 -44 174 -90 202 -42 25 -112 26 -158 1z"/>
<path d="M1241 4349 c-108 -278 -191 -491 -191 -495 0 -2 90 -4 200 -4 110 0
200 2 200 5 0 7 -191 509 -196 514 -2 2 -8 -7 -13 -20z"/>
<path d="M3495 3856 c-16 -12 -69 -40 -117 -61 -103 -45 -154 -84 -179 -139
-40 -87 -13 -197 55 -230 76 -36 164 -10 234 69 l42 48 0 168 c0 93 -1 169 -2
169 -2 -1 -16 -11 -33 -24z"/>
</g>
</svg>
